<svg xmlns="http://www.w3.org/2000/svg" width="26.486" height="26.486" viewBox="0 0 26.486 26.486">
  <path id="Icon_awesome-phone-alt" data-name="Icon awesome-phone-alt" d="M25.73,18.716l-5.794-2.483a1.242,1.242,0,0,0-1.448.357l-2.566,3.135a19.175,19.175,0,0,1-9.166-9.166L9.891,7.993a1.238,1.238,0,0,0,.357-1.448L7.765.751A1.25,1.25,0,0,0,6.342.032L.962,1.273A1.242,1.242,0,0,0,0,2.483a24,24,0,0,0,24,24,1.242,1.242,0,0,0,1.211-.962l1.242-5.38A1.257,1.257,0,0,0,25.73,18.716Z" transform="translate(0 0)" fill="#fff"/>
</svg>
